<?xml version="1.0" encoding="UTF-8"?>
<svg id="Camada_1" xmlns="http://www.w3.org/2000/svg" version="1.1" viewBox="0 0 1024 1024">
  <!-- Generator: Adobe Illustrator 30.3.0, SVG Export Plug-In . SVG Version: 2.1.3 Build 182)  -->
  <defs>
    <style>
      .st0 {
        opacity: .3;
      }

      .st0, .st1, .st2 {
        isolation: isolate;
      }

      .st3 {
        fill: #02f48d;
      }

      .st4 {
        fill: #15151e;
      }

      .st1 {
        opacity: .6;
      }

      .st2 {
        opacity: .1;
      }
    </style>
  </defs>
  <rect class="st3" width="1024" height="1024" rx="157.1" ry="157.1"/>
  <rect class="st2" y="256" width="1024" height="256"/>
  <rect class="st0" y="512" width="1024" height="256"/>
  <path class="st1" d="M1024,768v98.9c0,86.6-70.5,157.1-157.1,157.1H157.1c-86.6,0-157.1-70.5-157.1-157.1v-98.9h1024Z"/>
  <path class="st4" d="M657.2,832.4c-7.5,0-14.9-6-14.9-14.9v-181.9c-4.5-46.2-40.2-82-86.5-83.5H165.3c-16.4,0-28.3-13.4-28.3-28.3V219.8c0-16.4,13.4-28.3,28.3-28.3h412.9c16.4,0,28.3,13.4,28.3,28.3v286.2c4.5,44.7,40.2,79,85,82h180.4c7.5,0,14.9,6,14.9,14.9v214.6c0,7.5-6,14.9-14.9,14.9,0,0-214.6,0-214.6,0Z"/>
</svg>