<?xml version="1.0" encoding="UTF-8"?>
<svg id="b" xmlns="http://www.w3.org/2000/svg" version="1.1" viewBox="0 0 395.4 70.1">
  <!-- Generator: Adobe Illustrator 30.3.0, SVG Export Plug-In . SVG Version: 2.1.3 Build 182)  -->
  <defs>
    <style>
      .st0 {
        fill: #02f48d;
      }

      .st1 {
        fill: #15151e;
      }

      .st2 {
        fill: #eee;
      }
    </style>
  </defs>
  <g>
    <g>
      <path class="st2" d="M97.5,16.5l16.8,26.5v-26.5h7.3v38.9h-7.7l-17.3-27.3v27.3h-7.3V16.5h8.2Z"/>
      <path class="st2" d="M134.8,54.8c-2-.8-3.7-2-5.1-3.5-1.5-1.5-2.6-3.2-3.4-5.2-.8-2-1.3-4.1-1.3-6.3s.4-4.4,1.3-6.4c.8-2,2-3.7,3.4-5.1,1.5-1.5,3.2-2.6,5.1-3.5s4.1-1.3,6.3-1.3,4.3.4,6.3,1.3,3.7,2,5.1,3.5c1.5,1.5,2.6,3.2,3.5,5.1.8,2,1.3,4.1,1.3,6.4s-.4,4.3-1.3,6.3c-.8,2-2,3.7-3.5,5.2-1.5,1.5-3.2,2.6-5.1,3.5s-4.1,1.3-6.3,1.3-4.3-.4-6.3-1.3ZM144.7,48.5c1.1-.5,2.1-1.2,2.9-2,.8-.9,1.5-1.9,1.9-3,.5-1.2.7-2.4.7-3.7s-.2-2.5-.7-3.7c-.5-1.2-1.1-2.2-1.9-3-.8-.9-1.8-1.5-2.9-2-1.1-.5-2.3-.7-3.6-.7s-2.5.2-3.6.7-2.1,1.2-2.9,2c-.8.9-1.4,1.9-1.9,3-.5,1.2-.7,2.4-.7,3.7s.2,2.5.7,3.7c.5,1.2,1.1,2.2,1.9,3,.8.9,1.8,1.5,2.9,2,1.1.5,2.3.7,3.6.7s2.5-.2,3.6-.7Z"/>
      <path class="st2" d="M163,24.2v-4.7l7.3-5v9.7h6.3v6.5h-6.3v11.7c0,1.4,0,2.4.2,3.3.1.8.4,1.5.9,1.9s1.1.7,1.9.9c.8.1,1.9.2,3.3.2v6.8h-1c-2.4,0-4.4-.2-6.1-.6-1.6-.4-2.9-1.1-3.9-2.2s-1.6-2.3-2.1-4c-.4-1.7-.6-3.7-.6-6.2v-11.7h-5.3v-6.5h5.3Z"/>
      <path class="st2" d="M187.7,54.8c-2-.8-3.8-2-5.2-3.4-1.4-1.5-2.6-3.2-3.4-5.1-.8-2-1.2-4.1-1.2-6.3s.4-4.4,1.3-6.4c.8-2,2-3.7,3.4-5.2,1.5-1.5,3.2-2.6,5.1-3.5s4.1-1.3,6.4-1.3,4.5.4,6.4,1.2,3.7,1.9,5.1,3.4c1.4,1.4,2.5,3.1,3.3,5.1.8,2,1.2,4.1,1.2,6.4v2.7h-25.4c.5,2.2,1.6,4,3.3,5.3,1.7,1.4,3.8,2,6.3,2s3.8-.5,5.3-1.5c1.5-1,2.6-2.3,3.4-4l5.9,3.4c-1.4,2.5-3.2,4.6-5.7,6.1-2.4,1.5-5.4,2.3-8.9,2.3s-4.7-.4-6.7-1.3ZM188.6,31.7c-1.6,1.2-2.7,2.7-3.3,4.6h17.7c-.5-2.1-1.6-3.7-3.1-4.8-1.5-1.1-3.4-1.6-5.7-1.6s-4,.6-5.6,1.8Z"/>
      <path class="st2" d="M222.2,54.7c-2-.9-3.7-2-5.1-3.5-1.5-1.5-2.6-3.2-3.4-5.1-.8-2-1.3-4.1-1.3-6.3s.4-4.4,1.3-6.4c.8-2,2-3.7,3.4-5.2,1.5-1.5,3.2-2.6,5.1-3.5,2-.8,4.1-1.3,6.4-1.3s3.4.2,4.9.7c1.5.5,3,1.1,4.2,2,1.3.9,2.4,1.9,3.4,3,1,1.2,1.7,2.5,2.3,3.9l-6.5,2.7c-.7-1.7-1.8-3.1-3.3-4.1-1.5-1-3.2-1.5-5.1-1.5s-2.5.2-3.7.7-2.1,1.2-2.9,2-1.5,1.9-1.9,3c-.5,1.2-.7,2.4-.7,3.7s.2,2.5.7,3.7c.5,1.2,1.1,2.2,1.9,3s1.8,1.5,2.9,2c1.1.5,2.4.7,3.7.7,2,0,3.8-.5,5.2-1.6,1.4-1.1,2.5-2.5,3.2-4.2l6.5,2.8c-.6,1.5-1.4,2.8-2.3,4-1,1.2-2.1,2.2-3.3,3.1-1.3.9-2.7,1.5-4.2,2-1.6.5-3.3.7-5.1.7s-4.4-.4-6.4-1.3Z"/>
      <path class="st2" d="M254.9,54.8c-2-.8-3.7-2-5.1-3.5-1.5-1.5-2.6-3.2-3.4-5.2-.8-2-1.3-4.1-1.3-6.3s.4-4.4,1.3-6.4,2-3.7,3.4-5.1c1.5-1.5,3.2-2.6,5.1-3.5,2-.9,4.1-1.3,6.3-1.3s4.3.4,6.3,1.3,3.7,2,5.1,3.5c1.5,1.5,2.6,3.2,3.5,5.1.8,2,1.3,4.1,1.3,6.4s-.4,4.3-1.3,6.3c-.8,2-2,3.7-3.5,5.2-1.5,1.5-3.2,2.6-5.1,3.5-2,.8-4.1,1.3-6.3,1.3s-4.3-.4-6.3-1.3ZM264.8,48.5c1.1-.5,2.1-1.2,2.9-2s1.5-1.9,1.9-3c.5-1.2.7-2.4.7-3.7s-.2-2.5-.7-3.7c-.5-1.2-1.1-2.2-1.9-3s-1.8-1.5-2.9-2c-1.1-.5-2.3-.7-3.6-.7s-2.5.2-3.6.7-2.1,1.2-2.9,2c-.8.9-1.4,1.9-1.9,3-.5,1.2-.7,2.4-.7,3.7s.2,2.5.7,3.7c.5,1.2,1.1,2.2,1.9,3,.8.9,1.8,1.5,2.9,2,1.1.5,2.3.7,3.6.7s2.5-.2,3.6-.7Z"/>
      <path class="st2" d="M289.5,54.9c-1.8-.7-3.5-1.8-4.9-3.2-1.5-1.4-2.6-3.1-3.5-5.1s-1.3-4.3-1.3-6.9.4-4.9,1.3-6.9c.9-2,2-3.7,3.5-5.1,1.4-1.4,3.1-2.4,4.9-3.2,1.8-.7,3.8-1.1,5.8-1.1s3.9.4,5.7,1.1c1.7.8,3.2,1.8,4.3,3.2v-11.9h7.3v39.5h-7.2v-4.1c-1.1,1.5-2.6,2.6-4.4,3.4s-3.7,1.3-5.8,1.3-3.7-.4-5.6-1.1ZM300,48.7c1.2-.5,2.1-1.2,3-2.1s1.5-1.9,1.9-3.1.7-2.4.7-3.8-.2-2.6-.7-3.7c-.5-1.2-1.1-2.2-1.9-3.1s-1.8-1.6-3-2.1c-1.2-.5-2.4-.7-3.7-.7s-2.6.2-3.7.7c-1.1.5-2.1,1.2-3,2s-1.5,1.9-2,3c-.5,1.2-.7,2.4-.7,3.8s.2,2.6.7,3.8c.5,1.2,1.1,2.2,2,3.1s1.8,1.6,3,2.1c1.1.5,2.4.7,3.7.7s2.6-.2,3.7-.7Z"/>
      <path class="st2" d="M325.3,54.8c-2-.8-3.8-2-5.2-3.4-1.4-1.5-2.6-3.2-3.4-5.1-.8-2-1.2-4.1-1.2-6.3s.4-4.4,1.3-6.4c.8-2,2-3.7,3.4-5.2,1.5-1.5,3.2-2.6,5.1-3.5s4.1-1.3,6.4-1.3,4.5.4,6.4,1.2,3.7,1.9,5.1,3.4c1.4,1.4,2.5,3.1,3.3,5.1.8,2,1.2,4.1,1.2,6.4v2.7h-25.4c.5,2.2,1.6,4,3.3,5.3,1.7,1.4,3.8,2,6.3,2s3.8-.5,5.3-1.5,2.6-2.3,3.4-4l5.9,3.4c-1.4,2.5-3.2,4.6-5.7,6.1-2.4,1.5-5.4,2.3-8.9,2.3s-4.7-.4-6.7-1.3ZM326.1,31.7c-1.6,1.2-2.7,2.7-3.3,4.6h17.7c-.5-2.1-1.6-3.7-3.1-4.8-1.5-1.1-3.4-1.6-5.7-1.6s-4,.6-5.6,1.8Z"/>
      <path class="st2" d="M358.1,24.2v4.6c1.4-3.1,4.1-4.6,8-4.6s2.2.1,3.1.4c.9.2,1.7.6,2.4,1l-2.7,6.8c-.5-.4-1.1-.6-1.8-.9-.7-.2-1.5-.3-2.5-.3-2.1,0-3.7.6-4.8,1.8s-1.6,3.1-1.6,5.8v16.6h-7.2v-31.2h7.1Z"/>
    </g>
    <path class="st2" d="M387.3,34.8c-1.8,0-3.2-.6-4.4-1.8-1.2-1.2-1.8-2.7-1.8-4.5s.6-3.2,1.8-4.5,2.7-1.8,4.4-1.8,3.2.6,4.4,1.8c1.2,1.2,1.8,2.7,1.8,4.5s-.6,3.2-1.8,4.5c-1.2,1.2-2.7,1.8-4.4,1.8ZM387.3,33.5c1.4,0,2.5-.5,3.5-1.4.9-1,1.4-2.1,1.4-3.5s-.5-2.6-1.4-3.5c-.9-1-2.1-1.4-3.5-1.4s-2.5.5-3.5,1.4c-.9,1-1.4,2.1-1.4,3.5s.5,2.6,1.4,3.5c.9,1,2.1,1.4,3.5,1.4ZM385,31.7v-6.4h2.7c.6,0,1.2.2,1.6.6.4.4.6.9.6,1.5s-.2,1.1-.6,1.5c-.4.4-1,.5-1.7.5h-1.7v-1.1h1.7c.3,0,.5,0,.7-.2.2-.2.3-.4.3-.7s0-.5-.3-.7c-.2-.2-.4-.3-.7-.3h-1.4v5.3h-1.2ZM388.8,31.7l-1.8-2.6h1.3c0,0,1.9,2.6,1.9,2.6h-1.4Z"/>
  </g>
  <g>
    <rect class="st0" x=".1" y=".5" width="69.6" height="69.6" rx="9.5" ry="9.5"/>
    <path class="st1" d="M44.7,56.8c-.5,0-1-.4-1-1v-11.8s0-.4,0-.4c-.3-3.1-2.7-5.5-5.8-5.6H11.7c-1.1,0-1.9-.9-1.9-1.9V15.7c0-1.1.9-1.9,1.9-1.9h27.7c1.1,0,1.9.9,1.9,1.9v18.7c0,.2,0,.4,0,.5.3,3,2.7,5.3,5.7,5.5h9.6s.4,0,.4,0h2.1c.5,0,1,.4,1,1v14.4c0,.5-.4,1-1,1h-14.4Z"/>
  </g>
</svg>